<svg width="29" height="19" viewBox="0 0 29 19" fill="none" xmlns="http://www.w3.org/2000/svg">
<g filter="url(#filter0_i_191_11747)">
<path d="M19.0312 0.6001C19.0312 0.2687 19.2999 0 19.6313 0H24.3297C24.6611 0 24.9296 0.2687 24.9296 0.6001V1.6876H19.0312V0.6001Z" fill="url(#paint0_linear_191_11747)"/>
<path d="M19.0312 0.6001C19.0312 0.2687 19.2999 0 19.6313 0H24.3297C24.6611 0 24.9296 0.2687 24.9296 0.6001V1.6876H19.0312V0.6001Z" fill="url(#paint1_radial_191_11747)"/>
</g>
<g filter="url(#filter1_i_191_11747)">
<path d="M3.04688 0.549999C3.04688 0.246299 3.29312 0 3.59688 0H6.46563C6.76938 0 7.01563 0.246299 7.01563 0.550099V1.6876H3.04688V0.549999Z" fill="url(#paint2_linear_191_11747)"/>
<path d="M3.04688 0.549999C3.04688 0.246299 3.29312 0 3.59688 0H6.46563C6.76938 0 7.01563 0.246299 7.01563 0.550099V1.6876H3.04688V0.549999Z" fill="url(#paint3_radial_191_11747)"/>
</g>
<g filter="url(#filter2_i_191_11747)">
<path d="M0 2.99219C0 1.88769 0.89543 0.992188 2 0.992188H25.9375C27.042 0.992188 27.9375 1.88769 27.9375 2.99219V4.65629C27.9375 4.79439 27.8255 4.90629 27.6875 4.90629H0.25C0.11193 4.90629 0 4.79439 0 4.65629V2.99219Z" fill="#DAD4E6"/>
<path d="M0 2.99219C0 1.88769 0.89543 0.992188 2 0.992188H25.9375C27.042 0.992188 27.9375 1.88769 27.9375 2.99219V4.65629C27.9375 4.79439 27.8255 4.90629 27.6875 4.90629H0.25C0.11193 4.90629 0 4.79439 0 4.65629V2.99219Z" fill="url(#paint4_linear_191_11747)"/>
<path d="M0 2.99219C0 1.88769 0.89543 0.992188 2 0.992188H25.9375C27.042 0.992188 27.9375 1.88769 27.9375 2.99219V4.65629C27.9375 4.79439 27.8255 4.90629 27.6875 4.90629H0.25C0.11193 4.90629 0 4.79439 0 4.65629V2.99219Z" fill="url(#paint5_linear_191_11747)"/>
<path d="M0 2.99219C0 1.88769 0.89543 0.992188 2 0.992188H25.9375C27.042 0.992188 27.9375 1.88769 27.9375 2.99219V4.65629C27.9375 4.79439 27.8255 4.90629 27.6875 4.90629H0.25C0.11193 4.90629 0 4.79439 0 4.65629V2.99219Z" fill="url(#paint6_linear_191_11747)"/>
<path d="M0 2.99219C0 1.88769 0.89543 0.992188 2 0.992188H25.9375C27.042 0.992188 27.9375 1.88769 27.9375 2.99219V4.65629C27.9375 4.79439 27.8255 4.90629 27.6875 4.90629H0.25C0.11193 4.90629 0 4.79439 0 4.65629V2.99219Z" fill="url(#paint7_radial_191_11747)"/>
<path d="M0 2.99219C0 1.88769 0.89543 0.992188 2 0.992188H25.9375C27.042 0.992188 27.9375 1.88769 27.9375 2.99219V4.65629C27.9375 4.79439 27.8255 4.90629 27.6875 4.90629H0.25C0.11193 4.90629 0 4.79439 0 4.65629V2.99219Z" fill="url(#paint8_linear_191_11747)"/>
</g>
<path d="M0 17.11C0 18.0848 0.79026 18.875 1.76509 18.875H26.1724C27.1472 18.875 27.9375 18.0848 27.9375 17.11C27.9375 17.0751 27.9093 17.0469 27.8745 17.0469H0.06304C0.02822 17.0469 0 17.0751 0 17.11Z" fill="url(#paint9_linear_191_11747)"/>
<path d="M0 17.11C0 18.0848 0.79026 18.875 1.76509 18.875H26.1724C27.1472 18.875 27.9375 18.0848 27.9375 17.11C27.9375 17.0751 27.9093 17.0469 27.8745 17.0469H0.06304C0.02822 17.0469 0 17.0751 0 17.11Z" fill="url(#paint10_linear_191_11747)"/>
<path d="M0 17.11C0 18.0848 0.79026 18.875 1.76509 18.875H26.1724C27.1472 18.875 27.9375 18.0848 27.9375 17.11C27.9375 17.0751 27.9093 17.0469 27.8745 17.0469H0.06304C0.02822 17.0469 0 17.0751 0 17.11Z" fill="url(#paint11_linear_191_11747)"/>
<path d="M0 17.11C0 18.0848 0.79026 18.875 1.76509 18.875H26.1724C27.1472 18.875 27.9375 18.0848 27.9375 17.11C27.9375 17.0751 27.9093 17.0469 27.8745 17.0469H0.06304C0.02822 17.0469 0 17.0751 0 17.11Z" fill="url(#paint12_radial_191_11747)"/>
<path d="M0 17.11C0 18.0848 0.79026 18.875 1.76509 18.875H26.1724C27.1472 18.875 27.9375 18.0848 27.9375 17.11C27.9375 17.0751 27.9093 17.0469 27.8745 17.0469H0.06304C0.02822 17.0469 0 17.0751 0 17.11Z" fill="url(#paint13_radial_191_11747)"/>
<path d="M0 5.15625C0 5.01815 0.11193 4.90625 0.25 4.90625H27.6875C27.8255 4.90625 27.9375 5.01815 27.9375 5.15625V16.7969C27.9375 16.935 27.8255 17.0469 27.6875 17.0469H0.25C0.11193 17.0469 0 16.935 0 16.7969V5.15625Z" fill="url(#paint14_linear_191_11747)"/>
<path d="M0 5.15625C0 5.01815 0.11193 4.90625 0.25 4.90625H27.6875C27.8255 4.90625 27.9375 5.01815 27.9375 5.15625V16.7969C27.9375 16.935 27.8255 17.0469 27.6875 17.0469H0.25C0.11193 17.0469 0 16.935 0 16.7969V5.15625Z" fill="url(#paint15_linear_191_11747)"/>
<path d="M0 5.15625C0 5.01815 0.11193 4.90625 0.25 4.90625H27.6875C27.8255 4.90625 27.9375 5.01815 27.9375 5.15625V16.7969C27.9375 16.935 27.8255 17.0469 27.6875 17.0469H0.25C0.11193 17.0469 0 16.935 0 16.7969V5.15625Z" fill="url(#paint16_linear_191_11747)"/>
<path d="M0 5.15625C0 5.01815 0.11193 4.90625 0.25 4.90625H27.6875C27.8255 4.90625 27.9375 5.01815 27.9375 5.15625V16.7969C27.9375 16.935 27.8255 17.0469 27.6875 17.0469H0.25C0.11193 17.0469 0 16.935 0 16.7969V5.15625Z" fill="url(#paint17_linear_191_11747)"/>
<path d="M0 5.15625C0 5.01815 0.11193 4.90625 0.25 4.90625H27.6875C27.8255 4.90625 27.9375 5.01815 27.9375 5.15625V16.7969C27.9375 16.935 27.8255 17.0469 27.6875 17.0469H0.25C0.11193 17.0469 0 16.935 0 16.7969V5.15625Z" fill="url(#paint18_linear_191_11747)"/>
<path d="M0 5.15625C0 5.01815 0.11193 4.90625 0.25 4.90625H27.6875C27.8255 4.90625 27.9375 5.01815 27.9375 5.15625V16.7969C27.9375 16.935 27.8255 17.0469 27.6875 17.0469H0.25C0.11193 17.0469 0 16.935 0 16.7969V5.15625Z" fill="url(#paint19_linear_191_11747)"/>
<path d="M0 5.15625C0 5.01815 0.11193 4.90625 0.25 4.90625H27.6875C27.8255 4.90625 27.9375 5.01815 27.9375 5.15625V16.7969C27.9375 16.935 27.8255 17.0469 27.6875 17.0469H0.25C0.11193 17.0469 0 16.935 0 16.7969V5.15625Z" fill="url(#paint20_radial_191_11747)"/>
<g filter="url(#filter3_iiii_191_11747)">
<path d="M13.9687 17.9609C17.8434 17.9609 20.9844 14.8199 20.9844 10.9453C20.9844 7.07069 17.8434 3.92969 13.9687 3.92969C10.0941 3.92969 6.95312 7.07069 6.95312 10.9453C6.95312 14.8199 10.0941 17.9609 13.9687 17.9609Z" fill="url(#paint21_radial_191_11747)"/>
</g>
<g filter="url(#filter4_f_191_11747)">
<path d="M13.9688 15.9141C16.7129 15.9141 18.9375 13.6895 18.9375 10.9453C18.9375 8.20115 16.7129 5.97656 13.9688 5.97656C11.2246 5.97656 9 8.20115 9 10.9453C9 13.6895 11.2246 15.9141 13.9688 15.9141Z" stroke="url(#paint22_linear_191_11747)" stroke-width="0.3"/>
<path d="M13.9688 15.9141C16.7129 15.9141 18.9375 13.6895 18.9375 10.9453C18.9375 8.20115 16.7129 5.97656 13.9688 5.97656C11.2246 5.97656 9 8.20115 9 10.9453C9 13.6895 11.2246 15.9141 13.9688 15.9141Z" stroke="url(#paint23_linear_191_11747)" stroke-width="0.3"/>
</g>
<path d="M13.9688 15.9141C16.7129 15.9141 18.9375 13.6895 18.9375 10.9453C18.9375 8.20115 16.7129 5.97656 13.9688 5.97656C11.2246 5.97656 9 8.20115 9 10.9453C9 13.6895 11.2246 15.9141 13.9688 15.9141Z" fill="url(#paint24_radial_191_11747)"/>
<path d="M13.9688 15.9141C16.7129 15.9141 18.9375 13.6895 18.9375 10.9453C18.9375 8.20115 16.7129 5.97656 13.9688 5.97656C11.2246 5.97656 9 8.20115 9 10.9453C9 13.6895 11.2246 15.9141 13.9688 15.9141Z" fill="url(#paint25_linear_191_11747)"/>
<g filter="url(#filter5_f_191_11747)">
<path d="M13.9687 15.2969C16.372 15.2969 18.3203 13.3486 18.3203 10.9453C18.3203 8.54201 16.372 6.59375 13.9687 6.59375C11.5654 6.59375 9.61719 8.54201 9.61719 10.9453C9.61719 13.3486 11.5654 15.2969 13.9687 15.2969Z" fill="url(#paint26_radial_191_11747)"/>
<path d="M13.9687 15.2969C16.372 15.2969 18.3203 13.3486 18.3203 10.9453C18.3203 8.54201 16.372 6.59375 13.9687 6.59375C11.5654 6.59375 9.61719 8.54201 9.61719 10.9453C9.61719 13.3486 11.5654 15.2969 13.9687 15.2969Z" fill="url(#paint27_radial_191_11747)"/>
</g>
<path d="M13.9687 13.3984C15.3236 13.3984 16.4219 12.3001 16.4219 10.9453C16.4219 9.59049 15.3236 8.49219 13.9687 8.49219C12.6139 8.49219 11.5156 9.59049 11.5156 10.9453C11.5156 12.3001 12.6139 13.3984 13.9687 13.3984Z" fill="url(#paint28_linear_191_11747)"/>
<path d="M13.9687 13.3984C15.3236 13.3984 16.4219 12.3001 16.4219 10.9453C16.4219 9.59049 15.3236 8.49219 13.9687 8.49219C12.6139 8.49219 11.5156 9.59049 11.5156 10.9453C11.5156 12.3001 12.6139 13.3984 13.9687 13.3984Z" fill="url(#paint29_radial_191_11747)"/>
<path d="M13.9687 13.3984C15.3236 13.3984 16.4219 12.3001 16.4219 10.9453C16.4219 9.59049 15.3236 8.49219 13.9687 8.49219C12.6139 8.49219 11.5156 9.59049 11.5156 10.9453C11.5156 12.3001 12.6139 13.3984 13.9687 13.3984Z" fill="url(#paint30_radial_191_11747)"/>
<path d="M16.6023 9.80735C16.9809 9.54253 17.0203 8.94546 16.6903 8.47375C16.3603 8.00204 15.7859 7.83431 15.4074 8.09912C15.0288 8.36394 14.9894 8.96101 15.3194 9.43272C15.6494 9.90444 16.2237 10.0722 16.6023 9.80735Z" fill="url(#paint31_linear_191_11747)"/>
<g filter="url(#filter6_f_191_11747)">
<path d="M27.4531 5.22656H26.9844V16.7266H27.4531V5.22656Z" fill="#8D8D92"/>
</g>
<defs>
<filter id="filter0_i_191_11747" x="19.0312" y="0" width="5.89844" height="1.83762" filterUnits="userSpaceOnUse" color-interpolation-filters="sRGB">
<feFlood flood-opacity="0" result="BackgroundImageFix"/>
<feBlend mode="normal" in="SourceGraphic" in2="BackgroundImageFix" result="shape"/>
<feColorMatrix in="SourceAlpha" type="matrix" values="0 0 0 0 0 0 0 0 0 0 0 0 0 0 0 0 0 0 127 0" result="hardAlpha"/>
<feOffset dy="0.15"/>
<feGaussianBlur stdDeviation="0.2"/>
<feComposite in2="hardAlpha" operator="arithmetic" k2="-1" k3="1"/>
<feColorMatrix type="matrix" values="0 0 0 0 0.701961 0 0 0 0 0.709804 0 0 0 0 0.713726 0 0 0 1 0"/>
<feBlend mode="normal" in2="shape" result="effect1_innerShadow_191_11747"/>
</filter>
<filter id="filter1_i_191_11747" x="3.04688" y="0" width="3.96875" height="1.83762" filterUnits="userSpaceOnUse" color-interpolation-filters="sRGB">
<feFlood flood-opacity="0" result="BackgroundImageFix"/>
<feBlend mode="normal" in="SourceGraphic" in2="BackgroundImageFix" result="shape"/>
<feColorMatrix in="SourceAlpha" type="matrix" values="0 0 0 0 0 0 0 0 0 0 0 0 0 0 0 0 0 0 127 0" result="hardAlpha"/>
<feOffset dy="0.15"/>
<feGaussianBlur stdDeviation="0.2"/>
<feComposite in2="hardAlpha" operator="arithmetic" k2="-1" k3="1"/>
<feColorMatrix type="matrix" values="0 0 0 0 0.701961 0 0 0 0 0.709804 0 0 0 0 0.713726 0 0 0 1 0"/>
<feBlend mode="normal" in2="shape" result="effect1_innerShadow_191_11747"/>
</filter>
<filter id="filter2_i_191_11747" x="0" y="0.992188" width="27.9375" height="4.01406" filterUnits="userSpaceOnUse" color-interpolation-filters="sRGB">
<feFlood flood-opacity="0" result="BackgroundImageFix"/>
<feBlend mode="normal" in="SourceGraphic" in2="BackgroundImageFix" result="shape"/>
<feColorMatrix in="SourceAlpha" type="matrix" values="0 0 0 0 0 0 0 0 0 0 0 0 0 0 0 0 0 0 127 0" result="hardAlpha"/>
<feOffset dy="0.1"/>
<feGaussianBlur stdDeviation="0.15"/>
<feComposite in2="hardAlpha" operator="arithmetic" k2="-1" k3="1"/>
<feColorMatrix type="matrix" values="0 0 0 0 0.796078 0 0 0 0 0.8 0 0 0 0 0.803922 0 0 0 1 0"/>
<feBlend mode="normal" in2="shape" result="effect1_innerShadow_191_11747"/>
</filter>
<filter id="filter3_iiii_191_11747" x="6.80312" y="3.77969" width="14.3313" height="14.3313" filterUnits="userSpaceOnUse" color-interpolation-filters="sRGB">
<feFlood flood-opacity="0" result="BackgroundImageFix"/>
<feBlend mode="normal" in="SourceGraphic" in2="BackgroundImageFix" result="shape"/>
<feColorMatrix in="SourceAlpha" type="matrix" values="0 0 0 0 0 0 0 0 0 0 0 0 0 0 0 0 0 0 127 0" result="hardAlpha"/>
<feOffset dy="-0.15"/>
<feGaussianBlur stdDeviation="0.075"/>
<feComposite in2="hardAlpha" operator="arithmetic" k2="-1" k3="1"/>
<feColorMatrix type="matrix" values="0 0 0 0 0.545098 0 0 0 0 0.529412 0 0 0 0 0.580392 0 0 0 1 0"/>
<feBlend mode="normal" in2="shape" result="effect1_innerShadow_191_11747"/>
<feColorMatrix in="SourceAlpha" type="matrix" values="0 0 0 0 0 0 0 0 0 0 0 0 0 0 0 0 0 0 127 0" result="hardAlpha"/>
<feOffset dx="0.15"/>
<feGaussianBlur stdDeviation="0.075"/>
<feComposite in2="hardAlpha" operator="arithmetic" k2="-1" k3="1"/>
<feColorMatrix type="matrix" values="0 0 0 0 0.564706 0 0 0 0 0.54902 0 0 0 0 0.6 0 0 0 1 0"/>
<feBlend mode="normal" in2="effect1_innerShadow_191_11747" result="effect2_innerShadow_191_11747"/>
<feColorMatrix in="SourceAlpha" type="matrix" values="0 0 0 0 0 0 0 0 0 0 0 0 0 0 0 0 0 0 127 0" result="hardAlpha"/>
<feOffset dy="0.15"/>
<feGaussianBlur stdDeviation="0.075"/>
<feComposite in2="hardAlpha" operator="arithmetic" k2="-1" k3="1"/>
<feColorMatrix type="matrix" values="0 0 0 0 0.619608 0 0 0 0 0.623529 0 0 0 0 0.631373 0 0 0 1 0"/>
<feBlend mode="normal" in2="effect2_innerShadow_191_11747" result="effect3_innerShadow_191_11747"/>
<feColorMatrix in="SourceAlpha" type="matrix" values="0 0 0 0 0 0 0 0 0 0 0 0 0 0 0 0 0 0 127 0" result="hardAlpha"/>
<feOffset dx="-0.15" dy="0.1"/>
<feGaussianBlur stdDeviation="0.125"/>
<feComposite in2="hardAlpha" operator="arithmetic" k2="-1" k3="1"/>
<feColorMatrix type="matrix" values="0 0 0 0 0.803922 0 0 0 0 0.803922 0 0 0 0 0.823529 0 0 0 1 0"/>
<feBlend mode="normal" in2="effect3_innerShadow_191_11747" result="effect4_innerShadow_191_11747"/>
</filter>
<filter id="filter4_f_191_11747" x="8.4501" y="5.42654" width="11.0373" height="11.0375" filterUnits="userSpaceOnUse" color-interpolation-filters="sRGB">
<feFlood flood-opacity="0" result="BackgroundImageFix"/>
<feBlend mode="normal" in="SourceGraphic" in2="BackgroundImageFix" result="shape"/>
<feGaussianBlur stdDeviation="0.2" result="effect1_foregroundBlur_191_11747"/>
</filter>
<filter id="filter5_f_191_11747" x="8.86719" y="5.84375" width="10.2031" height="10.2031" filterUnits="userSpaceOnUse" color-interpolation-filters="sRGB">
<feFlood flood-opacity="0" result="BackgroundImageFix"/>
<feBlend mode="normal" in="SourceGraphic" in2="BackgroundImageFix" result="shape"/>
<feGaussianBlur stdDeviation="0.375" result="effect1_foregroundBlur_191_11747"/>
</filter>
<filter id="filter6_f_191_11747" x="26.3344" y="4.57656" width="1.76875" height="12.8" filterUnits="userSpaceOnUse" color-interpolation-filters="sRGB">
<feFlood flood-opacity="0" result="BackgroundImageFix"/>
<feBlend mode="normal" in="SourceGraphic" in2="BackgroundImageFix" result="shape"/>
<feGaussianBlur stdDeviation="0.325" result="effect1_foregroundBlur_191_11747"/>
</filter>
<linearGradient id="paint0_linear_191_11747" x1="19.375" y1="0.8438" x2="25.4062" y2="0.8438" gradientUnits="userSpaceOnUse">
<stop offset="0.196906" stop-color="#949597"/>
<stop offset="0.624473" stop-color="#C1C2C4"/>
</linearGradient>
<radialGradient id="paint1_radial_191_11747" cx="0" cy="0" r="1" gradientUnits="userSpaceOnUse" gradientTransform="translate(23.4062 0.4376) rotate(90) scale(0.21875 1.6875)">
<stop stop-color="#CFD0D2"/>
<stop offset="1" stop-color="#CFD0D2" stop-opacity="0"/>
</radialGradient>
<linearGradient id="paint2_linear_191_11747" x1="3.27817" y1="0.8438" x2="7.33628" y2="0.8438" gradientUnits="userSpaceOnUse">
<stop offset="0.196906" stop-color="#949597"/>
<stop offset="0.624473" stop-color="#C1C2C4"/>
</linearGradient>
<radialGradient id="paint3_radial_191_11747" cx="0" cy="0" r="1" gradientUnits="userSpaceOnUse" gradientTransform="translate(5.99058 0.4376) rotate(90) scale(0.21875 1.13543)">
<stop stop-color="#CFD0D2"/>
<stop offset="1" stop-color="#CFD0D2" stop-opacity="0"/>
</radialGradient>
<linearGradient id="paint4_linear_191_11747" x1="13.9687" y1="0.992188" x2="13.9687" y2="2.62499" gradientUnits="userSpaceOnUse">
<stop stop-color="#D8D8DC"/>
<stop offset="1" stop-color="#D8D8DC" stop-opacity="0"/>
</linearGradient>
<linearGradient id="paint5_linear_191_11747" x1="0" y1="4.31249" x2="1.5625" y2="4.31249" gradientUnits="userSpaceOnUse">
<stop offset="0.22" stop-color="#C6C3CC"/>
<stop offset="1" stop-color="#C6C3CC" stop-opacity="0"/>
</linearGradient>
<linearGradient id="paint6_linear_191_11747" x1="27.9375" y1="4.56259" x2="25.375" y2="4.56259" gradientUnits="userSpaceOnUse">
<stop offset="0.15" stop-color="#F9F7FE"/>
<stop offset="1" stop-color="#D3CDDD" stop-opacity="0"/>
</linearGradient>
<radialGradient id="paint7_radial_191_11747" cx="0" cy="0" r="1" gradientUnits="userSpaceOnUse" gradientTransform="translate(27.9374 1.74999) rotate(135.463) scale(1.70982 2.07599)">
<stop offset="0.15" stop-color="#F9F7FE"/>
<stop offset="1" stop-color="#F9F7FE" stop-opacity="0"/>
</radialGradient>
<linearGradient id="paint8_linear_191_11747" x1="15.5937" y1="4.90629" x2="15.5937" y2="4.56259" gradientUnits="userSpaceOnUse">
<stop stop-color="#B6ADC6"/>
<stop offset="1" stop-color="#B6ADC6" stop-opacity="0"/>
</linearGradient>
<linearGradient id="paint9_linear_191_11747" x1="13.9688" y1="17.0469" x2="13.9688" y2="18.875" gradientUnits="userSpaceOnUse">
<stop stop-color="#CFC6DE"/>
<stop offset="1" stop-color="#C3B4D7"/>
</linearGradient>
<linearGradient id="paint10_linear_191_11747" x1="15.3437" y1="18.875" x2="15.3437" y2="17.4688" gradientUnits="userSpaceOnUse">
<stop stop-color="#AC91C9"/>
<stop offset="1" stop-color="#C2B3D6" stop-opacity="0"/>
</linearGradient>
<linearGradient id="paint11_linear_191_11747" x1="13.9688" y1="17.0469" x2="13.9688" y2="17.5626" gradientUnits="userSpaceOnUse">
<stop stop-color="#CFCBD7"/>
<stop offset="1" stop-color="#CFCBD7" stop-opacity="0"/>
</linearGradient>
<radialGradient id="paint12_radial_191_11747" cx="0" cy="0" r="1" gradientUnits="userSpaceOnUse" gradientTransform="translate(27.25 16.6563) rotate(90) scale(1.93749 1.25528)">
<stop offset="0.241932" stop-color="#F7F4FE"/>
<stop offset="1" stop-color="#C8BCDB" stop-opacity="0"/>
</radialGradient>
<radialGradient id="paint13_radial_191_11747" cx="0" cy="0" r="1" gradientUnits="userSpaceOnUse" gradientTransform="translate(12.2187 14.2813) rotate(90) scale(4.59375 6.48312)">
<stop offset="0.645161" stop-color="#9884AF"/>
<stop offset="1" stop-color="#9884AF" stop-opacity="0"/>
</radialGradient>
<linearGradient id="paint14_linear_191_11747" x1="18.25" y1="10.9765" x2="27.2501" y2="10.9765" gradientUnits="userSpaceOnUse">
<stop stop-color="#66636F"/>
<stop offset="1" stop-color="#6B6873"/>
</linearGradient>
<linearGradient id="paint15_linear_191_11747" x1="0" y1="12.6563" x2="2.6875" y2="12.6876" gradientUnits="userSpaceOnUse">
<stop offset="0.342105" stop-color="#5E5C64"/>
<stop offset="1" stop-color="#5E5C64" stop-opacity="0"/>
</linearGradient>
<linearGradient id="paint16_linear_191_11747" x1="-0.34375" y1="11.1563" x2="0.8125" y2="11.1563" gradientUnits="userSpaceOnUse">
<stop stop-color="#8F8F91"/>
<stop offset="1" stop-color="#6D6C71" stop-opacity="0"/>
</linearGradient>
<linearGradient id="paint17_linear_191_11747" x1="13.9688" y1="4.90625" x2="13.9688" y2="5.65625" gradientUnits="userSpaceOnUse">
<stop stop-color="#706F76"/>
<stop offset="1" stop-color="#706F76" stop-opacity="0"/>
</linearGradient>
<linearGradient id="paint18_linear_191_11747" x1="13.9687" y1="4.90625" x2="13.9687" y2="5.23435" gradientUnits="userSpaceOnUse">
<stop stop-color="#5F5E65"/>
<stop offset="1" stop-color="#5F5E65" stop-opacity="0"/>
</linearGradient>
<linearGradient id="paint19_linear_191_11747" x1="17.2812" y1="17.0469" x2="17.2812" y2="16.4375" gradientUnits="userSpaceOnUse">
<stop stop-color="#5C536A"/>
<stop offset="1" stop-color="#5C536A" stop-opacity="0"/>
</linearGradient>
<radialGradient id="paint20_radial_191_11747" cx="0" cy="0" r="1" gradientUnits="userSpaceOnUse" gradientTransform="translate(11.5938 12.875) rotate(53.6782) scale(8.49414 8.46172)">
<stop offset="0.59701" stop-color="#4B4357"/>
<stop offset="1" stop-color="#524C5D" stop-opacity="0"/>
</radialGradient>
<radialGradient id="paint21_radial_191_11747" cx="0" cy="0" r="1" gradientUnits="userSpaceOnUse" gradientTransform="translate(19.3124 7.65621) rotate(143.867) scale(11.1822)">
<stop stop-color="#A6A2AE"/>
<stop offset="1" stop-color="#A6A2AF"/>
</radialGradient>
<linearGradient id="paint22_linear_191_11747" x1="17.2499" y1="5.75001" x2="13.9687" y2="15.914" gradientUnits="userSpaceOnUse">
<stop stop-color="#6A6375"/>
<stop offset="1" stop-color="#6A6375" stop-opacity="0"/>
</linearGradient>
<linearGradient id="paint23_linear_191_11747" x1="10.8125" y1="14.7812" x2="12.625" y2="12.3125" gradientUnits="userSpaceOnUse">
<stop offset="0.36304" stop-color="#B7B6BD"/>
<stop offset="1" stop-color="#B7B6BD" stop-opacity="0"/>
</linearGradient>
<radialGradient id="paint24_radial_191_11747" cx="0" cy="0" r="1" gradientUnits="userSpaceOnUse" gradientTransform="translate(16.6875 9.62501) rotate(143.911) scale(6.41935 5.9978)">
<stop offset="0.0683178" stop-color="#67616D"/>
<stop offset="1" stop-color="#4D3E5C"/>
</radialGradient>
<linearGradient id="paint25_linear_191_11747" x1="17.4063" y1="5.97651" x2="10.4688" y2="14.8437" gradientUnits="userSpaceOnUse">
<stop stop-color="#2C2634"/>
<stop offset="0.598769" stop-color="#40344C"/>
</linearGradient>
<radialGradient id="paint26_radial_191_11747" cx="0" cy="0" r="1" gradientUnits="userSpaceOnUse" gradientTransform="translate(16.3497 9.78901) rotate(143.911) scale(5.62198 5.25279)">
<stop offset="0.0683178" stop-color="#67616D"/>
<stop offset="1" stop-color="#4D3E5C"/>
</radialGradient>
<radialGradient id="paint27_radial_191_11747" cx="0" cy="0" r="1" gradientUnits="userSpaceOnUse" gradientTransform="translate(16.3437 9.12491) rotate(147.397) scale(7.30776 7.07082)">
<stop offset="0.77983" stop-color="#554863" stop-opacity="0"/>
<stop offset="0.985426" stop-color="#554863"/>
</radialGradient>
<linearGradient id="paint28_linear_191_11747" x1="15.2499" y1="13.2187" x2="12.0312" y2="8.93741" gradientUnits="userSpaceOnUse">
<stop stop-color="#463755"/>
<stop offset="1" stop-color="#473F51"/>
</linearGradient>
<radialGradient id="paint29_radial_191_11747" cx="0" cy="0" r="1" gradientUnits="userSpaceOnUse" gradientTransform="translate(12.3437 12.7812) rotate(-48.6139) scale(4.20681 2.88478)">
<stop stop-color="#544E5C"/>
<stop offset="1" stop-color="#544E5C" stop-opacity="0"/>
</radialGradient>
<radialGradient id="paint30_radial_191_11747" cx="0" cy="0" r="1" gradientUnits="userSpaceOnUse" gradientTransform="translate(16.4218 8.87491) rotate(146.088) scale(2.24049)">
<stop stop-color="#544E5C"/>
<stop offset="1" stop-color="#544E5C" stop-opacity="0"/>
</radialGradient>
<linearGradient id="paint31_linear_191_11747" x1="16.0048" y1="8.18747" x2="16.3751" y2="9.99994" gradientUnits="userSpaceOnUse">
<stop offset="0.0511788" stop-color="#F3F2F4"/>
<stop offset="1" stop-color="#F3F2F4" stop-opacity="0"/>
</linearGradient>
</defs>
</svg>
