<svg width="9" height="25" viewBox="0 0 9 25" fill="none" xmlns="http://www.w3.org/2000/svg">
<path d="M0.336162 20.8535C1.03905 20.3078 1.72154 19.6256 2.3837 18.807C3.04587 17.9636 3.63667 16.9589 4.1562 15.793C4.67572 14.6023 5.08828 13.2256 5.39389 11.6628C5.70965 10.1 5.86757 8.30154 5.86757 6.26744C5.86757 5.2752 5.82685 4.5062 5.74533 3.96047C5.66381 3.41474 5.52125 3.14186 5.31749 3.14186C5.13413 3.14186 4.96093 3.35271 4.79796 3.77442C4.64516 4.19613 4.50252 4.72945 4.37012 5.37442C4.24788 6.01939 4.13076 6.73875 4.01868 7.53256C3.91683 8.32636 3.8302 9.09535 3.75891 9.83954H0.993209L1.49745 4.25814C2.06794 3.06744 2.66891 2.14961 3.30051 1.50465C3.93211 0.834883 4.64516 0.5 5.43973 0.5C5.92869 0.5 6.3871 0.636435 6.81494 0.909304C7.25295 1.18217 7.62991 1.61628 7.94567 2.21163C8.27167 2.78218 8.52631 3.51395 8.70968 4.40698C8.9032 5.2752 9 6.31706 9 7.53256C9 8.45038 8.93376 9.35581 8.80136 10.2488C8.67912 11.1419 8.45503 12.0721 8.12903 13.0395C7.81327 13.9822 7.3803 14.9744 6.83022 16.0163C6.2903 17.0333 5.60269 18.1372 4.7674 19.3279H8.17487L7.86927 24.5H0L0.336162 20.8535Z" fill="#6B7280"/>
</svg>
