<svg width="9" height="25" viewBox="0 0 9 25" fill="none" xmlns="http://www.w3.org/2000/svg">
<path d="M3.55959 24.5C2.82381 24.5 2.17617 24.2795 1.61658 23.8384C1.05699 23.373 0.518161 22.5644 0 21.4127L0.497411 15.8997H3.12435C3.12435 15.8752 3.11402 15.9609 3.09326 16.157C3.08293 16.353 3.06738 16.6103 3.04663 16.9288C3.0363 17.2473 3.02075 17.6026 3 17.9946C2.98966 18.3867 2.98446 18.7665 2.98446 19.134C2.98446 20.1387 3.0363 20.8614 3.1399 21.3024C3.25391 21.719 3.40935 21.9273 3.60622 21.9273C3.82384 21.9273 4.02591 21.7558 4.21244 21.4127C4.4093 21.0696 4.57515 20.6409 4.70984 20.1263C4.84453 19.6118 4.94821 19.0482 5.02072 18.4357C5.10365 17.7986 5.14508 17.1861 5.14508 16.598C5.14508 15.4709 5.02073 14.6378 4.77202 14.0988C4.53366 13.5352 4.23832 13.2534 3.88601 13.2534C3.9171 12.7879 3.9534 12.3714 3.99482 12.0038C4.02591 11.6853 4.05179 11.4035 4.07254 11.1585C4.10363 10.889 4.11917 10.742 4.11917 10.7175C4.46114 10.7175 4.74614 10.5949 4.97409 10.3499C5.21246 10.0804 5.40412 9.72511 5.54923 9.28407C5.70467 8.81854 5.81347 8.27947 5.87565 7.66692C5.93782 7.02986 5.96891 6.35606 5.96891 5.64548C5.96891 5.35146 5.95858 5.05743 5.93783 4.7634C5.92749 4.44488 5.90153 4.16309 5.86011 3.91807C5.81868 3.64854 5.7565 3.44028 5.67358 3.29326C5.60106 3.12175 5.49738 3.03599 5.3627 3.03599C5.0829 3.03599 4.80832 3.42802 4.53886 4.2121C4.27982 4.99618 4.04666 6.33154 3.83938 8.21822H1.1658L1.63212 3.03599C1.94301 2.57045 2.30052 2.15391 2.70466 1.78637C3.04663 1.46784 3.45598 1.17381 3.93264 0.904289C4.41971 0.634763 4.97409 0.5 5.59586 0.5C6 0.5 6.40414 0.585758 6.80829 0.757276C7.21243 0.904289 7.57515 1.18607 7.89637 1.6026C8.228 2.01914 8.49225 2.58269 8.68912 3.29326C8.8964 4.00384 9 4.91041 9 6.01302C9 6.84609 8.93783 7.58116 8.81347 8.21822C8.69946 8.83078 8.52847 9.38208 8.30052 9.87213C8.07257 10.3622 7.7979 10.8032 7.47669 11.1953C7.1658 11.5873 6.80829 11.9548 6.40415 12.2979C6.71503 12.3714 7.00515 12.5184 7.27461 12.7389C7.54407 12.9594 7.77723 13.2657 7.97409 13.6577C8.18137 14.0498 8.34194 14.5276 8.45596 15.0911C8.58031 15.6547 8.64249 16.3285 8.64249 17.1126C8.64249 18.1661 8.52334 19.1463 8.28497 20.0528C8.04661 20.9594 7.70464 21.7435 7.25907 22.4051C6.82384 23.0666 6.29013 23.5812 5.65803 23.9487C5.03627 24.3162 4.33679 24.5 3.55959 24.5Z" fill="#6B7280"/>
</svg>
