<svg width="24" height="24" viewBox="0 0 24 24" fill="none" xmlns="http://www.w3.org/2000/svg">
<path d="M13.9876 22.5057H9.94507C5.28757 22.5057 1.50757 18.7257 1.50757 14.0682V10.1232H22.4251V14.0682C22.4251 18.7257 18.6451 22.5057 13.9876 22.5057Z" fill="url(#paint0_linear_58_3813)"/>
<path d="M13.9876 22.5057H9.94507C5.28757 22.5057 1.50757 18.7257 1.50757 14.0682V10.1232H22.4251V14.0682C22.4251 18.7257 18.6451 22.5057 13.9876 22.5057Z" fill="url(#paint1_linear_58_3813)"/>
<path d="M16.44 3.84375H7.485C4.1775 3.84375 1.5 6.81568 1.5 10.1232C1.5 13.4307 4.1775 16.1082 7.485 16.1082H16.4325C19.74 16.1082 22.4175 13.4307 22.4175 10.1232C22.425 6.82318 20.1914 3.84375 16.44 3.84375Z" fill="url(#paint2_linear_58_3813)"/>
<g filter="url(#filter0_f_58_3813)">
<path d="M19.9044 8.52014C19.7019 7.74764 19.1225 7.20295 18.7325 6.52795C18.7325 6.52795 6.29725 2.63894 4.12511 6.39838C3.73511 7.07338 2.94843 7.88592 2.78915 8.85936C2.26184 12.082 4.25754 12.8009 5.38485 13.6875C6.59185 14.6367 8.53676 14.4258 11.4837 14.4258C13.7695 14.4258 16.123 14.4971 17.6895 13.6875C19.3326 12.8383 20.4341 10.5413 19.9044 8.52014Z" fill="#642A2B"/>
</g>
<path d="M20.3906 8.2734C20.1881 7.5009 19.6087 6.95621 19.2187 6.28121C18.8212 5.59871 18.5081 4.6448 17.9531 4.0898C17.3981 3.5348 16.7915 3.26819 16.1015 2.87069C15.4265 2.48069 15.0342 1.97199 14.2617 1.76949C13.398 1.54309 12.7162 1.7695 11.9062 1.7695C11.0962 1.7695 10.7343 1.45305 9.57418 1.8398C8.81657 2.09235 8.6203 2.48069 7.9453 2.87069C7.2703 3.27569 6.56247 3.43359 6.0234 4.11328C5.52192 4.74559 5.14358 5.57953 4.74608 6.26953C4.35608 6.94453 3.74517 7.41718 3.58589 8.39062C3.05858 11.6133 4.74377 13.0704 5.87108 13.957C7.07808 14.9062 9.02299 14.6953 11.9699 14.6953C14.2558 14.6953 16.6092 14.7666 18.1758 13.957C19.8188 13.1078 20.9204 10.2946 20.3906 8.2734Z" fill="#FAF8FC"/>
<path d="M20.3906 8.2734C20.1881 7.5009 19.6087 6.95621 19.2187 6.28121C18.8212 5.59871 18.5081 4.6448 17.9531 4.0898C17.3981 3.5348 16.7915 3.26819 16.1015 2.87069C15.4265 2.48069 15.0342 1.97199 14.2617 1.76949C13.398 1.54309 12.7162 1.7695 11.9062 1.7695C11.0962 1.7695 10.7343 1.45305 9.57418 1.8398C8.81657 2.09235 8.6203 2.48069 7.9453 2.87069C7.2703 3.27569 6.56247 3.43359 6.0234 4.11328C5.52192 4.74559 5.14358 5.57953 4.74608 6.26953C4.35608 6.94453 3.74517 7.41718 3.58589 8.39062C3.05858 11.6133 4.74377 13.0704 5.87108 13.957C7.07808 14.9062 9.02299 14.6953 11.9699 14.6953C14.2558 14.6953 16.6092 14.7666 18.1758 13.957C19.8188 13.1078 20.9204 10.2946 20.3906 8.2734Z" fill="url(#paint3_radial_58_3813)"/>
<path d="M20.3906 8.2734C20.1881 7.5009 19.6087 6.95621 19.2187 6.28121C18.8212 5.59871 18.5081 4.6448 17.9531 4.0898C17.3981 3.5348 16.7915 3.26819 16.1015 2.87069C15.4265 2.48069 15.0342 1.97199 14.2617 1.76949C13.398 1.54309 12.7162 1.7695 11.9062 1.7695C11.0962 1.7695 10.7343 1.45305 9.57418 1.8398C8.81657 2.09235 8.6203 2.48069 7.9453 2.87069C7.2703 3.27569 6.56247 3.43359 6.0234 4.11328C5.52192 4.74559 5.14358 5.57953 4.74608 6.26953C4.35608 6.94453 3.74517 7.41718 3.58589 8.39062C3.05858 11.6133 4.74377 13.0704 5.87108 13.957C7.07808 14.9062 9.02299 14.6953 11.9699 14.6953C14.2558 14.6953 16.6092 14.7666 18.1758 13.957C19.8188 13.1078 20.9204 10.2946 20.3906 8.2734Z" fill="url(#paint4_radial_58_3813)"/>
<path d="M20.3906 8.2734C20.1881 7.5009 19.6087 6.95621 19.2187 6.28121C18.8212 5.59871 18.5081 4.6448 17.9531 4.0898C17.3981 3.5348 16.7915 3.26819 16.1015 2.87069C15.4265 2.48069 15.0342 1.97199 14.2617 1.76949C13.398 1.54309 12.7162 1.7695 11.9062 1.7695C11.0962 1.7695 10.7343 1.45305 9.57418 1.8398C8.81657 2.09235 8.6203 2.48069 7.9453 2.87069C7.2703 3.27569 6.56247 3.43359 6.0234 4.11328C5.52192 4.74559 5.14358 5.57953 4.74608 6.26953C4.35608 6.94453 3.74517 7.41718 3.58589 8.39062C3.05858 11.6133 4.74377 13.0704 5.87108 13.957C7.07808 14.9062 9.02299 14.6953 11.9699 14.6953C14.2558 14.6953 16.6092 14.7666 18.1758 13.957C19.8188 13.1078 20.9204 10.2946 20.3906 8.2734Z" fill="url(#paint5_radial_58_3813)"/>
<path d="M20.3906 8.2734C20.1881 7.5009 19.6087 6.95621 19.2187 6.28121C18.8212 5.59871 18.5081 4.6448 17.9531 4.0898C17.3981 3.5348 16.7915 3.26819 16.1015 2.87069C15.4265 2.48069 15.0342 1.97199 14.2617 1.76949C13.398 1.54309 12.7162 1.7695 11.9062 1.7695C11.0962 1.7695 10.7343 1.45305 9.57418 1.8398C8.81657 2.09235 8.6203 2.48069 7.9453 2.87069C7.2703 3.27569 6.56247 3.43359 6.0234 4.11328C5.52192 4.74559 5.14358 5.57953 4.74608 6.26953C4.35608 6.94453 3.74517 7.41718 3.58589 8.39062C3.05858 11.6133 4.74377 13.0704 5.87108 13.957C7.07808 14.9062 9.02299 14.6953 11.9699 14.6953C14.2558 14.6953 16.6092 14.7666 18.1758 13.957C19.8188 13.1078 20.9204 10.2946 20.3906 8.2734Z" fill="url(#paint6_radial_58_3813)"/>
<path d="M9.11245 8.18068L9.68995 9.47818C9.81745 9.76318 10.1549 9.89068 10.4399 9.76318C10.7249 9.63568 10.8524 9.29818 10.7249 9.01318L10.1474 7.71568C10.0199 7.43068 9.68244 7.30318 9.39744 7.43068C9.11244 7.55818 8.98495 7.88818 9.11245 8.18068Z" fill="#C5BFCF"/>
<path d="M7.18489 11.3533L6.92239 12.7483C6.86239 13.0558 7.06489 13.3558 7.37989 13.4158C7.68739 13.4758 7.98739 13.2733 8.04739 12.9583L8.30989 11.5633C8.36989 11.2558 8.16739 10.9558 7.85239 10.8958C7.53739 10.8358 7.23739 11.0383 7.18489 11.3533Z" fill="#BAB1C8"/>
<path d="M5.86486 8.59324L4.60486 9.25324C4.32736 9.39574 4.21486 9.74074 4.36486 10.0182C4.50736 10.2957 4.85236 10.4082 5.12986 10.2582L6.38986 9.59824C6.66736 9.45574 6.77986 9.11074 6.62986 8.83324C6.48736 8.55574 6.14236 8.45074 5.86486 8.59324Z" fill="url(#paint7_linear_58_3813)"/>
<path d="M14.8123 4.55074L14.5498 5.94574C14.4898 6.25324 14.6923 6.55324 15.0073 6.61324C15.3148 6.67324 15.6148 6.47074 15.6748 6.15574L15.9373 4.76074C15.9973 4.45324 15.7948 4.15324 15.4798 4.09324C15.1723 4.04074 14.8723 4.24324 14.8123 4.55074Z" fill="#E0DDE2"/>
<path d="M6.78002 4.77579L5.93252 5.91579C5.74502 6.17079 5.79752 6.52329 6.05252 6.71079C6.30752 6.89829 6.66002 6.84579 6.84752 6.59079L7.69502 5.45079C7.88252 5.19579 7.83002 4.84329 7.57502 4.65579C7.32752 4.46829 6.96752 4.52079 6.78002 4.77579Z" fill="#A6A2A9"/>
<path d="M12.0449 11.2858L11.1974 12.4258C11.0099 12.6808 11.0624 13.0333 11.3174 13.2208C11.5724 13.4083 11.9249 13.3558 12.1124 13.1008L12.9599 11.9608C13.1474 11.7058 13.0949 11.3533 12.8399 11.1658C12.5849 10.9858 12.2324 11.0383 12.0449 11.2858Z" fill="#C7BFD5"/>
<path d="M17.6401 8.25579L18.5626 9.33579C18.7651 9.57579 19.1251 9.60579 19.3651 9.40329C19.6051 9.20079 19.6351 8.84079 19.4326 8.60079L18.5101 7.52079C18.3076 7.28079 17.9476 7.25079 17.7076 7.45329C17.4676 7.66329 17.4376 8.01579 17.6401 8.25579Z" fill="#EDEBEF"/>
<path d="M12 4.58822L11.2875 3.35822C11.13 3.08822 10.785 2.99072 10.5075 3.14822C10.2375 3.30572 10.14 3.65072 10.2975 3.92822L11.01 5.15822C11.1675 5.42822 11.5125 5.52572 11.79 5.36822C12.0675 5.21072 12.1575 4.86572 12 4.58822Z" fill="#CCCACF"/>
<path d="M18.03 12.4107L17.3175 11.1807C17.16 10.9107 16.815 10.8132 16.5375 10.9707C16.2675 11.1282 16.17 11.4732 16.3275 11.7507L17.04 12.9807C17.1975 13.2507 17.5425 13.3482 17.82 13.1907C18.09 13.0332 18.1875 12.6882 18.03 12.4107Z" fill="#DAD4E2"/>
<path d="M15.1648 8.47324L13.8598 7.91074C13.5748 7.78324 13.2373 7.91824 13.1098 8.21074C12.9823 8.49574 13.1173 8.83324 13.4098 8.96074L14.7148 9.52324C14.9998 9.65074 15.3373 9.51574 15.4648 9.22324C15.5848 8.93074 15.4498 8.59324 15.1648 8.47324Z" fill="#D5D0DD"/>
<defs>
<filter id="filter0_f_58_3813" x="0.702148" y="2.7605" width="21.3364" height="13.6853" filterUnits="userSpaceOnUse" color-interpolation-filters="sRGB">
<feFlood flood-opacity="0" result="BackgroundImageFix"/>
<feBlend mode="normal" in="SourceGraphic" in2="BackgroundImageFix" result="shape"/>
<feGaussianBlur stdDeviation="1" result="effect1_foregroundBlur_58_3813"/>
</filter>
<linearGradient id="paint0_linear_58_3813" x1="22.4251" y1="16.7344" x2="1.96881" y2="16.7344" gradientUnits="userSpaceOnUse">
<stop stop-color="#FF3F48"/>
<stop offset="0.136114" stop-color="#FC2D53"/>
<stop offset="0.312557" stop-color="#D42C62"/>
<stop offset="0.509624" stop-color="#D82D67"/>
<stop offset="0.754812" stop-color="#C52E62"/>
<stop offset="1" stop-color="#984651"/>
</linearGradient>
<linearGradient id="paint1_linear_58_3813" x1="10.0313" y1="23.5313" x2="10.0313" y2="19.5938" gradientUnits="userSpaceOnUse">
<stop stop-color="#A2336C"/>
<stop offset="1" stop-color="#A82B66" stop-opacity="0"/>
</linearGradient>
<linearGradient id="paint2_linear_58_3813" x1="20.7188" y1="4.45313" x2="3.65625" y2="12.9844" gradientUnits="userSpaceOnUse">
<stop stop-color="#EB3334"/>
<stop offset="1" stop-color="#B22B4D"/>
</linearGradient>
<radialGradient id="paint3_radial_58_3813" cx="0" cy="0" r="1" gradientUnits="userSpaceOnUse" gradientTransform="translate(6.28121 18.0937) rotate(-46.5802) scale(19.2318 19.6101)">
<stop offset="0.47468" stop-color="#E0D4EF"/>
<stop offset="0.908677" stop-color="#FCFBFD" stop-opacity="0"/>
</radialGradient>
<radialGradient id="paint4_radial_58_3813" cx="0" cy="0" r="1" gradientUnits="userSpaceOnUse" gradientTransform="translate(15.6562 10.0781) rotate(109.194) scale(14.5428 17.3475)">
<stop offset="0.394803" stop-color="#D1CDD5" stop-opacity="0"/>
<stop offset="0.659678" stop-color="#9B96A1"/>
</radialGradient>
<radialGradient id="paint5_radial_58_3813" cx="0" cy="0" r="1" gradientUnits="userSpaceOnUse" gradientTransform="translate(11.0625 3.32812) rotate(91.3019) scale(2.06303 2.40817)">
<stop stop-color="#E0DFE0"/>
<stop offset="1" stop-color="#F9F6FC" stop-opacity="0"/>
</radialGradient>
<radialGradient id="paint6_radial_58_3813" cx="0" cy="0" r="1" gradientUnits="userSpaceOnUse" gradientTransform="translate(14.6718 3.60938) rotate(150.751) scale(1.34311 2.47055)">
<stop stop-color="#F6F5F6"/>
<stop offset="1" stop-color="#F1EFF2" stop-opacity="0"/>
</radialGradient>
<linearGradient id="paint7_linear_58_3813" x1="4.59367" y1="9.9375" x2="6.69662" y2="8.52978" gradientUnits="userSpaceOnUse">
<stop stop-color="#807985"/>
<stop offset="1" stop-color="#A6A0AE"/>
</linearGradient>
</defs>
</svg>
