<svg width="47" height="20" viewBox="0 0 47 20" fill="none" xmlns="http://www.w3.org/2000/svg">
<path d="M0.8 9.4C4.72 7.88 6.88 5.16 6.88 0.74H13.56C13.56 2.3 13.38 3.7 13.06 4.94C17.1 3.16 22.48 6.12 19.46 13.1H14.6C14.96 9.3 13.14 8.08 11.34 8.64C9.54 11.14 6.7 12.72 3 13.62L0.8 9.4ZM1.49012e-08 19.36V15.36H8.08C7.9 14.2 7.82 12.84 7.88 11.76H14.12C14.18 12.84 14.1 14.2 13.92 15.36H22V19.36H1.49012e-08ZM29.1839 11.76C23.9039 10.98 23.0839 7.84 24.6439 5.18L23.8039 5.26L23.6039 0.959999C27.9639 0.48 32.5039 0.48 36.8639 0.959999L36.6639 5.22C34.6239 5 31.8239 4.92 30.2439 5.06C29.2039 6.18 29.3639 7.28 31.1639 7.58C32.7039 7.84 34.5639 7.74 36.7639 7.2L37.6639 10.92C35.2439 11.7 32.1639 12.2 29.1839 11.76ZM27.1439 19.56C26.1439 17.46 25.9239 14.96 26.3239 12.46L32.1239 12.66C32.1839 13.08 32.2439 13.58 32.2839 14.14C33.8239 12.46 37.6839 11.4 41.3039 12.4C44.1039 13.16 44.4239 15.88 43.1639 16.94H44.3039V19.56H32.7839L32.9039 17.44L36.2839 17.04C37.7239 16.86 37.7639 15.94 36.6839 15.66C35.5239 15.38 33.2839 15.84 32.3639 17.2C32.3439 17.96 32.3039 18.76 32.2439 19.56H27.1439ZM38.2239 11.74C37.7239 8.4 37.6439 3.88 38.0439 0.539999H44.2839C44.3639 1.68 44.4239 2.96 44.4039 4.28H46.4039V8.68H44.2039C44.0839 9.76 43.9439 10.8 43.7639 11.74H38.2239Z" fill="black"/>
</svg>
